<?xml version="1.0" encoding="UTF-8"?>
<svg version="1.1" xmlns="http://www.w3.org/2000/svg" width="1080" height="1080">
<path d="M0 0 C2.86477513 3.42857477 5.20603564 6.87938938 7.3984375 10.76953125 C8.03523438 11.89294922 8.67203125 13.01636719 9.328125 14.17382812 C9.66134766 14.76623291 9.99457031 15.3586377 10.33789062 15.96899414 C12.11997861 19.13673104 13.91650744 22.29627502 15.7109375 25.45703125 C16.25581818 26.4181633 16.25581818 26.4181633 16.81170654 27.39871216 C20.15788702 33.29515335 23.57043543 39.15169511 27 45 C32.40420982 54.22762262 37.72652762 63.49995374 43.02050781 72.79101562 C47.63502804 80.88744133 52.29095255 88.95806509 57 97 C62.4035646 106.22800529 67.72652361 115.4999467 73.02050781 124.79101562 C77.63502804 132.88744133 82.29095255 140.95806509 87 149 C92.4035646 158.22800529 97.72652361 167.4999467 103.02050781 176.79101562 C107.63502804 184.88744133 112.29095255 192.95806509 117 201 C122.4035646 210.22800529 127.72652361 219.4999467 133.02050781 228.79101562 C137.63502804 236.88744133 142.29095255 244.95806509 147 253 C152.05631048 261.63497772 157.04593006 270.30614235 162 279 C168.66641232 290.69648348 175.41824799 302.34104554 182.22070312 313.95898438 C185.4447268 319.46919827 188.65915161 324.98501235 191.875 330.5 C193.05985715 332.53127256 194.24474922 334.56252476 195.4296875 336.59375 C196.28645833 338.0625 197.14322917 339.53125 198 341 C202.09587814 336.34559302 204.89029366 331.08218402 207.875 325.6875 C212.44339103 317.51545121 217.07542157 309.38795577 221.8125 301.3125 C226.93267528 292.57407708 231.98661179 283.79993156 237 275 C242.51246859 265.32509216 248.08424699 255.68717637 253.7109375 246.078125 C258.19166146 238.4142623 262.60506752 230.71321165 267 223 C272.51263835 213.32518781 278.08424567 203.68717863 283.7109375 194.078125 C288.19166146 186.4142623 292.60506752 178.71321165 297 171 C302.50646932 161.3360146 308.06869464 151.70691124 313.69335938 142.11108398 C316.90285807 136.62575063 320.07900714 131.12311132 323.21875 125.59765625 C323.57582031 124.96983246 323.93289063 124.34200867 324.30078125 123.69515991 C326.03710266 120.64111564 327.76962497 117.58501514 329.49609375 114.52539062 C333.09983049 108.17647611 336.83351699 101.99659321 341 96 C343.75746999 99.30538577 346.02895473 102.58942457 348.1015625 106.359375 C348.66866943 107.38345459 349.23577637 108.40753418 349.82006836 109.46264648 C350.71350952 111.08988647 350.71350952 111.08988647 351.625 112.75 C355.65708274 120.02314293 359.69013149 127.28750712 363.9375 134.4375 C368.07341637 141.40755586 372.1412128 148.41501381 376.1875 155.4375 C376.82550537 156.54472412 377.46351074 157.65194824 378.12084961 158.79272461 C379.42889477 161.06337068 380.73675448 163.33412358 382.04443359 165.60498047 C385.19332054 171.0716998 388.34683264 176.53574887 391.5 182 C392.7500235 184.16665311 394.00002347 186.33331979 395.25 188.5 C396.178125 190.10875 396.178125 190.10875 397.125 191.75 C459 299 520.875 406.25 644.62524414 620.75048828 C645.87435518 622.91557071 647.12354129 625.08060982 648.37280273 627.24560547 C651.51202309 632.68615706 654.64990563 638.12747216 657.78515625 643.5703125 C659.04426459 645.75521193 660.30337914 647.94010779 661.5625 650.125 C662.17295166 651.18525391 662.78340332 652.24550781 663.41235352 653.33789062 C666.60282634 658.87215172 669.81287582 664.39409569 673.0546875 669.8984375 C673.70622803 671.00687012 674.35776855 672.11530273 675.02905273 673.25732422 C676.2773778 675.37837494 677.52934949 677.49728476 678.78540039 679.61376953 C679.3396167 680.55591309 679.89383301 681.49805664 680.46484375 682.46875 C680.955896 683.29826172 681.44694824 684.12777344 681.95288086 684.98242188 C683 687 683 687 683 689 C596.40196421 689.41057525 509.80339059 689.75736755 198.01953125 690.09765625 C195.82441129 690.09762783 193.62929134 690.09759968 191.43417138 690.09757179 C138.08800879 690.096762 84.7418489 690.08725277 31.39568816 690.07373433 C-3.07971361 690.06499841 -37.55511492 690.05883673 -72.03051758 690.05493164 C-73.18405823 690.05480011 -74.33759889 690.05466859 -75.52609532 690.05453308 C-87.12167267 690.05321335 -98.71725001 690.05193772 -110.31282737 690.05069422 C-133.88606727 690.04816525 -157.45930714 690.04534404 -181.032547 690.04234314 C-182.11386861 690.04220585 -183.19519022 690.04206856 -184.30927916 690.04192711 C-255.20618703 690.03289249 -326.10309367 690.01707217 -397 690 C-395.53028926 686.23283763 -393.8497922 682.80946736 -391.83203125 679.30078125 C-390.87478149 677.63088135 -390.87478149 677.63088135 -389.89819336 675.92724609 C-389.20304466 674.72228318 -388.5078113 673.5173691 -387.8125 672.3125 C-387.09031382 671.05565201 -386.3683941 669.79865088 -385.64672852 668.54150391 C-383.79256933 665.31362852 -381.93436047 662.08810651 -380.07458496 658.86346436 C-378.42607817 656.00474796 -376.77968312 653.14481546 -375.1328125 650.28515625 C-372.04520824 644.92721891 -368.95279067 639.57207499 -365.85888672 634.21777344 C-362.73675395 628.81329355 -359.61858796 623.40652588 -356.5 618 C-355.25001878 615.8333225 -354.00001879 613.66665583 -352.75 611.5 C-351.821875 609.89125 -351.821875 609.89125 -350.875 608.25 C-289 501 -227.125 393.75 -28.37231445 49.24536133 C-27.13124746 47.09416776 -25.89019907 44.94296345 -24.64916992 42.79174805 C-21.73501656 37.74037001 -18.82068182 32.6890969 -15.90567017 27.63821411 C-14.87326522 25.84933082 -13.84092044 24.06041283 -12.80859375 22.27148438 C-11.51314052 20.02662364 -10.2175743 17.7818281 -8.921875 15.53710938 C-5.93692086 10.36428226 -2.95754683 5.18854991 0 0 Z " fill="#F99A4E" transform="translate(397,390)"/>
<path d="M0 0 C2.86477513 3.42857477 5.20603564 6.87938938 7.3984375 10.76953125 C8.03523438 11.89294922 8.67203125 13.01636719 9.328125 14.17382812 C9.66134766 14.76623291 9.99457031 15.3586377 10.33789062 15.96899414 C12.11997861 19.13673104 13.91650744 22.29627502 15.7109375 25.45703125 C16.25581818 26.4181633 16.25581818 26.4181633 16.81170654 27.39871216 C20.15788702 33.29515335 23.57043543 39.15169511 27 45 C32.40420982 54.22762262 37.72652762 63.49995374 43.02050781 72.79101562 C47.63502804 80.88744133 52.29095255 88.95806509 57 97 C62.4035646 106.22800529 67.72652361 115.4999467 73.02050781 124.79101562 C77.63502804 132.88744133 82.29095255 140.95806509 87 149 C92.4035646 158.22800529 97.72652361 167.4999467 103.02050781 176.79101562 C107.63502804 184.88744133 112.29095255 192.95806509 117 201 C122.4035646 210.22800529 127.72652361 219.4999467 133.02050781 228.79101562 C137.63502804 236.88744133 142.29095255 244.95806509 147 253 C152.05631048 261.63497772 157.04593006 270.30614235 162 279 C167.00077488 287.77405687 172.03267797 296.52861732 177.125 305.25 C177.96333374 306.69113159 177.96333374 306.69113159 178.81860352 308.16137695 C181.8434606 313.3513949 184.90824863 318.51361779 188.01953125 323.65234375 C188.6748584 324.74579102 189.33018555 325.83923828 190.00537109 326.96582031 C191.26579716 329.06748601 192.5377632 331.1622864 193.82275391 333.24902344 C194.38526855 334.19165039 194.9477832 335.13427734 195.52734375 336.10546875 C196.02999756 336.93199951 196.53265137 337.75853027 197.05053711 338.61010742 C198.24207337 341.60932276 197.99518984 342.95408008 197 346 C195.82348633 348.48168945 195.82348633 348.48168945 194.33203125 351.11328125 C193.77588135 352.10126709 193.21973145 353.08925293 192.64672852 354.10717773 C192.04143311 355.16493408 191.4361377 356.22269043 190.8125 357.3125 C190.184646 358.42117432 189.55679199 359.52984863 188.90991211 360.67211914 C183.53806301 370.12965658 178.06304021 379.52701651 172.5625 388.91015625 C168.8678669 395.21570419 165.21147319 401.54294436 161.5625 407.875 C160.93996338 408.95515381 160.31742676 410.03530762 159.67602539 411.14819336 C158.41423174 413.33796334 157.15259466 415.52782355 155.89111328 417.71777344 C152.76319852 423.14659942 149.63141552 428.57319281 146.5 434 C145.24998121 436.16665583 143.99998122 438.3333225 142.75 440.5 C131.5 460 120.25 479.5 109 499 C108.34 499 107.68 499 107 499 C106.59386475 498.2879541 106.18772949 497.5759082 105.76928711 496.84228516 C96.50970237 480.61238092 87.21224977 464.40519854 77.86328125 448.2265625 C75.9796495 444.96475993 74.09877679 441.70138156 72.21875 438.4375 C65.87491087 427.42544493 59.5165346 416.42194641 53.125 405.4375 C52.52357178 404.40157715 51.92214355 403.3656543 51.30249023 402.29833984 C50.75149658 401.35297363 50.20050293 400.40760742 49.6328125 399.43359375 C49.14699707 398.59884521 48.66118164 397.76409668 48.16064453 396.90405273 C47.14011742 395.06153903 47.14011742 395.06153903 46 394 C45.16082031 395.53140625 45.16082031 395.53140625 44.3046875 397.09375 C38.87822603 406.95101312 33.28692428 416.70076939 27.59716797 426.40820312 C23.01111713 434.24193923 18.49282043 442.11262816 14 450 C8.48770144 459.67500363 2.91575168 469.3128259 -2.7109375 478.921875 C-7.19166146 486.5857377 -11.60506752 494.28678835 -16 502 C-21.51263835 511.67481219 -27.08424567 521.31282137 -32.7109375 530.921875 C-37.19166146 538.5857377 -41.60506752 546.28678835 -46 554 C-51.51263835 563.67481219 -57.08424567 573.31282137 -62.7109375 582.921875 C-67.19166146 590.5857377 -71.60506752 598.28678835 -76 606 C-81.50971367 615.6696793 -87.07790528 625.30284888 -92.70214844 634.90649414 C-97.27100083 642.7203733 -101.76838623 650.57342682 -106.25 658.4375 C-110.77529832 666.3760738 -115.31017923 674.30782886 -119.9375 682.1875 C-120.34452148 682.88222412 -120.75154297 683.57694824 -121.17089844 684.29272461 C-123.87394188 688.87394188 -123.87394188 688.87394188 -125 690 C-126.45435801 690.09668251 -127.9134047 690.12371797 -129.37097263 690.12304783 C-130.32044728 690.12503888 -131.26992192 690.12702993 -132.24816853 690.12908131 C-133.30359362 690.12616847 -134.35901872 690.12325563 -135.44642639 690.12025452 C-136.55800706 690.12110894 -137.66958773 690.12196337 -138.81485265 690.12284368 C-142.5706762 690.12450174 -146.3264559 690.1189718 -150.08227539 690.11352539 C-152.7621928 690.11324356 -155.44210746 690.11335705 -158.12202454 690.1139679 C-163.90769474 690.11449332 -169.6933537 690.11134456 -175.47902107 690.10573006 C-183.84421817 690.0976176 -192.2094098 690.0950001 -200.5746104 690.09374207 C-214.14520234 690.09155114 -227.71578828 690.08488997 -241.28637695 690.07543945 C-254.47224904 690.06626637 -267.65811951 690.05918503 -280.84399414 690.05493164 C-281.65619421 690.05466892 -282.46839429 690.05440619 -283.30520649 690.05413551 C-287.37960322 690.05283051 -291.45399997 690.05156679 -295.52839673 690.05032361 C-329.35226883 690.03994974 -363.17613368 690.02233034 -397 690 C-395.53028926 686.23283763 -393.8497922 682.80946736 -391.83203125 679.30078125 C-390.87478149 677.63088135 -390.87478149 677.63088135 -389.89819336 675.92724609 C-389.20304466 674.72228318 -388.5078113 673.5173691 -387.8125 672.3125 C-387.09031382 671.05565201 -386.3683941 669.79865088 -385.64672852 668.54150391 C-383.79256933 665.31362852 -381.93436047 662.08810651 -380.07458496 658.86346436 C-378.42607817 656.00474796 -376.77968312 653.14481546 -375.1328125 650.28515625 C-372.04520824 644.92721891 -368.95279067 639.57207499 -365.85888672 634.21777344 C-362.73675395 628.81329355 -359.61858796 623.40652588 -356.5 618 C-355.25001878 615.8333225 -354.00001879 613.66665583 -352.75 611.5 C-351.821875 609.89125 -351.821875 609.89125 -350.875 608.25 C-289 501 -227.125 393.75 -28.37231445 49.24536133 C-27.13124746 47.09416776 -25.89019907 44.94296345 -24.64916992 42.79174805 C-21.73501656 37.74037001 -18.82068182 32.6890969 -15.90567017 27.63821411 C-14.87326522 25.84933082 -13.84092044 24.06041283 -12.80859375 22.27148438 C-11.51314052 20.02662364 -10.2175743 17.7818281 -8.921875 15.53710938 C-5.93692086 10.36428226 -2.95754683 5.18854991 0 0 Z " fill="#3C70E8" transform="translate(397,390)"/>
<path d="M0 0 C0.66 0 1.32 0 2 0 C2.25990723 0.48017578 2.51981445 0.96035156 2.78759766 1.45507812 C8.82589033 12.58417237 15.04564802 23.58947315 21.45361328 34.50976562 C26.02566509 42.30805869 30.52629537 50.14510234 35 58 C39.9533409 66.69426651 44.94369601 75.36503336 50 84 C55.4035646 93.22800529 60.72652361 102.4999467 66.02050781 111.79101562 C70.63502804 119.88744133 75.29095255 127.95806509 80 136 C85.4035646 145.22800529 90.72652361 154.4999467 96.02050781 163.79101562 C100.63502804 171.88744133 105.29095255 179.95806509 110 188 C115.4035646 197.22800529 120.72652361 206.4999467 126.02050781 215.79101562 C130.63502804 223.88744133 135.29095255 231.95806509 140 240 C145.4035646 249.22800529 150.72652361 258.4999467 156.02050781 267.79101562 C161.19024137 276.86159319 166.422976 285.89342464 171.69995117 294.90209961 C176.64371554 303.35574699 181.49757237 311.85910453 186.34130859 320.37026978 C190.67027115 327.9739612 195.03885142 335.54578991 199.61450195 343.00415039 C202 346.90504336 202 346.90504336 202 348 C28.75 348 -144.5 348 -323 348 C-313.11406955 329.87579418 -303.00154128 311.90103197 -292.5625 294.08984375 C-288.8678669 287.78429581 -285.21147319 281.45705564 -281.5625 275.125 C-280.93996338 274.04484619 -280.31742676 272.96469238 -279.67602539 271.85180664 C-278.41423174 269.66203666 -277.15259466 267.47217645 -275.89111328 265.28222656 C-272.76319852 259.85340058 -269.63141552 254.42680719 -266.5 249 C-265.24998121 246.83334417 -263.99998122 244.6666775 -262.75 242.5 C-235.25 194.83333333 -207.75 147.16666667 -180.25 99.5 C-179.6302832 98.42564697 -179.01056641 97.35129395 -178.37207031 96.24438477 C-177.13245688 94.09607713 -175.8922309 91.94812282 -174.65136719 89.80053711 C-171.71602317 84.71855855 -168.78714728 79.63315337 -165.87988281 74.5350647 C-164.50413209 72.12346917 -163.12488653 69.71388124 -161.74536133 67.30444336 C-160.77148182 65.6000945 -159.80267435 63.89285062 -158.83398438 62.18554688 C-157.94936523 60.64157227 -157.94936523 60.64157227 -157.046875 59.06640625 C-156.52963867 58.15834229 -156.01240234 57.25027832 -155.47949219 56.31469727 C-154.14476761 54.22649204 -152.83066332 52.65421796 -151 51 C-150.39079712 52.06806885 -150.39079712 52.06806885 -149.76928711 53.15771484 C-140.50970237 69.38761908 -131.21224977 85.59480146 -121.86328125 101.7734375 C-119.9796495 105.03524007 -118.09877679 108.29861844 -116.21875 111.5625 C-115.59307129 112.64837402 -114.96739258 113.73424805 -114.32275391 114.85302734 C-113.07728746 117.01461 -111.83216381 119.17639021 -110.58740234 121.33837891 C-107.39697191 126.87245445 -104.18703193 132.39425233 -100.9453125 137.8984375 C-100.29377197 139.00687012 -99.64223145 140.11530273 -98.97094727 141.25732422 C-97.7226222 143.37837494 -96.47065051 145.49728476 -95.21459961 147.61376953 C-94.6603833 148.55591309 -94.10616699 149.49805664 -93.53515625 150.46875 C-93.044104 151.29826172 -92.55305176 152.12777344 -92.04711914 152.98242188 C-91 155 -91 155 -91 157 C-90.34 157 -89.68 157 -89 157 C-88.72704102 156.28046143 -88.45408203 155.56092285 -88.17285156 154.81958008 C-87.01939229 152.0466198 -85.70261313 149.5052063 -84.234375 146.88671875 C-83.68144775 145.89873291 -83.12852051 144.91074707 -82.55883789 143.89282227 C-81.66346313 142.30618774 -81.66346313 142.30618774 -80.75 140.6875 C-80.12665771 139.57882568 -79.50331543 138.47015137 -78.86108398 137.32788086 C-73.52126695 127.86059123 -68.05876975 118.46700035 -62.5625 109.08984375 C-58.8678669 102.78429581 -55.21147319 96.45705564 -51.5625 90.125 C-50.93996338 89.04484619 -50.31742676 87.96469238 -49.67602539 86.85180664 C-48.41423174 84.66203666 -47.15259466 82.47217645 -45.89111328 80.28222656 C-42.14053601 73.77270411 -38.38498011 67.2660522 -34.62963867 60.75927734 C-31.47614838 55.29465337 -28.3253296 49.82852098 -25.1796875 44.359375 C-23.91166056 42.1561336 -22.64343301 39.95300765 -21.375 37.75 C-20.76124512 36.68386475 -20.14749023 35.61772949 -19.51513672 34.51928711 C-14.72996063 26.22477062 -9.86993974 17.97608291 -4.94677734 9.76269531 C-4.1880835 8.48990723 -4.1880835 8.48990723 -3.4140625 7.19140625 C-2.9701416 6.45092041 -2.5262207 5.71043457 -2.06884766 4.94750977 C-0.86350772 2.88922112 -0.86350772 2.88922112 0 0 Z " fill="#FEFEFE" transform="translate(595,732)"/>
<path d="M0 0 C2.6908148 3.23266975 4.93884808 6.42777197 6.9609375 10.11328125 C7.50741943 11.10126709 8.05390137 12.08925293 8.61694336 13.10717773 C9.19710205 14.16493408 9.77726074 15.22269043 10.375 16.3125 C15.13847884 24.90925178 19.9660761 33.45920681 24.9375 41.9375 C30.45422268 51.34906296 35.92778853 60.78408061 41.36352539 70.24267578 C44.55083154 75.78193069 47.7631653 81.30410442 51.0234375 86.80078125 C51.66990234 87.89455078 52.31636719 88.98832031 52.98242188 90.11523438 C54.21466319 92.19694648 55.45265967 94.27526611 56.69726562 96.34960938 C57.24833984 97.28224609 57.79941406 98.21488281 58.3671875 99.17578125 C59.09591064 100.39648315 59.09591064 100.39648315 59.83935547 101.6418457 C61.0825704 104.16776345 61.72748589 106.19804668 62 109 C60.76270402 111.77408414 59.48289683 114.21837923 57.9375 116.8125 C57.48777832 117.59383301 57.03805664 118.37516602 56.57470703 119.18017578 C55.0642841 121.79548763 53.53289158 124.3978024 52 127 C50.92479555 128.84447784 49.85059894 130.6895435 48.77734375 132.53515625 C47.05413608 135.49528143 45.32870883 138.45402114 43.59741211 141.40942383 C39.00971992 149.24184437 34.49266477 157.11290143 30 165 C24.48770144 174.67500363 18.91575168 184.3128259 13.2890625 193.921875 C8.80833854 201.5857377 4.39493248 209.28678835 0 217 C-5.50809166 226.66683263 -11.07330458 236.29796549 -16.69775391 245.89770508 C-19.87830145 251.33540081 -23.03055398 256.787928 -26.1484375 262.26171875 C-26.50077454 262.88007599 -26.85311157 263.49843323 -27.21612549 264.13552856 C-28.92107575 267.12937667 -30.62273122 270.12500925 -32.3203125 273.12304688 C-44.43317389 294.43317389 -44.43317389 294.43317389 -47 297 C-48.606892 297.09600136 -50.21801769 297.12187889 -51.82777405 297.12025452 C-52.87250381 297.12162918 -53.91723358 297.12300385 -54.99362183 297.12442017 C-56.72746628 297.11902725 -56.72746628 297.11902725 -58.49633789 297.11352539 C-59.70592667 297.11367142 -60.91551544 297.11381744 -62.16175842 297.1139679 C-65.48806351 297.11338893 -68.81430719 297.10835973 -72.1406014 297.10139394 C-75.61329929 297.09515978 -79.08599793 297.09455655 -82.55870056 297.09336853 C-89.13896193 297.0902554 -95.71920676 297.08204225 -102.29946083 297.07201904 C-109.78906112 297.06085734 -117.27866218 297.05534731 -124.7682687 297.05032361 C-140.17885539 297.03985962 -155.58942557 297.02226053 -171 297 C-170.03642745 295.23250949 -169.07274211 293.46508047 -168.10900879 291.69767761 C-167.57236855 290.71343402 -167.0357283 289.72919043 -166.48282623 288.71512127 C-158.09717635 273.36062063 -149.40839382 258.18278913 -140.5625 243.08984375 C-136.8678669 236.78429581 -133.21147319 230.45705564 -129.5625 224.125 C-128.93996338 223.04484619 -128.31742676 221.96469238 -127.67602539 220.85180664 C-126.41423174 218.66203666 -125.15259466 216.47217645 -123.89111328 214.28222656 C-120.76319852 208.85340058 -117.63141552 203.42680719 -114.5 198 C-113.24998121 195.83334417 -111.99998122 193.6666775 -110.75 191.5 C-83.25 143.83333333 -55.75 96.16666667 -28.25 48.5 C-27.63020264 47.42564697 -27.01040527 46.35129395 -26.37182617 45.24438477 C-25.13253733 43.09635954 -23.89311859 40.94840925 -22.65356445 38.80053711 C-19.71797433 33.71344451 -16.78374328 28.62558153 -13.85409546 23.5350647 C-12.46671905 21.12456252 -11.07860376 18.71448624 -9.69042969 16.30444336 C-8.70826185 14.59856032 -7.72716615 12.89206014 -6.74609375 11.18554688 C-6.153125 10.15623047 -5.56015625 9.12691406 -4.94921875 8.06640625 C-4.42674561 7.15834229 -3.90427246 6.25027832 -3.3659668 5.31469727 C-2.30022034 3.50873799 -1.16319248 1.74478871 0 0 Z " fill="#FEFEFE" transform="translate(443,783)"/>
<path d="M0 0 C2.65565787 2.39969682 4.27998553 4.96444189 6.046875 8.06640625 C6.63662109 9.09572266 7.22636719 10.12503906 7.83398438 11.18554688 C8.46626953 12.29994141 9.09855469 13.41433594 9.75 14.5625 C10.41941347 15.73401461 11.08934426 16.90523376 11.75976562 18.07617188 C13.15239997 20.50943834 14.54279747 22.94396232 15.93164062 25.37939453 C19.10029766 30.93157593 22.30179441 36.46480662 25.5 42 C26.75015525 44.16657709 28.00015473 46.33324407 29.25 48.5 C29.86875 49.5725 30.4875 50.645 31.125 51.75 C56.4375 95.625 56.4375 95.625 81.75 139.5 C82.36987793 140.57435303 82.98975586 141.64870605 83.62841797 142.75561523 C84.86738234 144.9033582 86.10599424 147.05130455 87.34423828 149.19946289 C90.28014105 154.29179437 93.21969755 159.38191695 96.17169189 164.4649353 C97.57068053 166.87434008 98.96767029 169.2849009 100.36450195 171.69555664 C101.35498071 173.40298982 102.3483594 175.10873972 103.34179688 176.81445312 C103.93798828 177.84376953 104.53417969 178.87308594 105.1484375 179.93359375 C105.67614746 180.84165771 106.20385742 181.74972168 106.74755859 182.68530273 C108 185 108 185 109 188 C37.39 188 -34.22 188 -108 188 C-101.17527603 174.35055205 -101.17527603 174.35055205 -97.5625 168.375 C-96.6915806 166.91343182 -95.82187049 165.45114263 -94.953125 163.98828125 C-94.48326172 163.19760254 -94.01339844 162.40692383 -93.52929688 161.59228516 C-90.58647492 156.60395765 -87.70266469 151.58145592 -84.8125 146.5625 C-83.85645874 144.90323486 -83.85645874 144.90323486 -82.88110352 143.21044922 C-81.57237584 140.93876335 -80.26386516 138.66695245 -78.95556641 136.39501953 C-75.80667946 130.9283002 -72.65316736 125.46425113 -69.5 120 C-68.2499765 117.83334689 -66.99997653 115.66668021 -65.75 113.5 C-53.25 91.83333333 -40.75 70.16666667 -28.25 48.5 C-27.63020264 47.42564697 -27.01040527 46.35129395 -26.37182617 45.24438477 C-25.13253733 43.09635954 -23.89311859 40.94840925 -22.65356445 38.80053711 C-19.71797433 33.71344451 -16.78374328 28.62558153 -13.85409546 23.5350647 C-12.46671905 21.12456252 -11.07860376 18.71448624 -9.69042969 16.30444336 C-8.70826185 14.59856032 -7.72716615 12.89206014 -6.74609375 11.18554688 C-6.153125 10.15623047 -5.56015625 9.12691406 -4.94921875 8.06640625 C-4.42674561 7.15834229 -3.90427246 6.25027832 -3.3659668 5.31469727 C-2.30022034 3.50873799 -1.16319248 1.74478871 0 0 Z " fill="#33A33C" transform="translate(505,891)"/>
</svg>
